<svg width="375" height="706" viewBox="0 0 375 706" fill="none" xmlns="http://www.w3.org/2000/svg">
<path d="M-32 658C-32 674.802 -32 683.202 -28.7302 689.62C-25.854 695.265 -21.2646 699.854 -15.6197 702.73C-9.20236 706 -0.801575 706 16 706H430.852C448.329 706 457.068 706 463.627 702.549C469.392 699.515 474.014 694.687 476.792 688.794C479.953 682.091 479.57 673.361 478.806 655.9L453.577 79.9328C452.923 64.9928 452.596 57.5228 449.569 51.6614C446.902 46.4969 442.793 42.2184 437.74 39.3458C432.005 36.0856 424.554 35.458 409.652 34.2027L20.0291 1.38269C1.97063 -0.138473 -7.05859 -0.899052 -14.0246 2.14862C-20.145 4.82627 -25.1964 9.47014 -28.3784 15.3441C-32 22.0297 -32 31.0909 -32 49.2133V658Z" fill="#578BC3"/>
</svg>
