<svg width="375" height="274" viewBox="0 0 375 274" fill="none" xmlns="http://www.w3.org/2000/svg">
<path fill-rule="evenodd" clip-rule="evenodd" d="M-130 104.606L-87.954 82.0203C-45.9079 59.4344 38.1841 14.2627 122.276 2.96982C206.368 -8.32311 290.46 14.2627 374.552 42.495C458.644 70.7274 542.737 104.606 626.829 98.9597C710.921 93.3132 795.013 48.1415 837.059 25.5557L879.105 2.96982V274H837.059C795.013 274 710.921 274 626.829 274C542.737 274 458.644 274 374.552 274C290.46 274 206.368 274 122.276 274C38.1841 274 -45.9079 274 -87.954 274H-130V104.606Z" fill="#DEF1FF"/>
</svg>
