<svg width="1289" height="511" viewBox="0 0 1289 511" fill="none" xmlns="http://www.w3.org/2000/svg">
<path d="M0 463C0 479.802 0 488.202 3.2698 494.62C6.14601 500.265 10.7354 504.854 16.3803 507.73C22.7976 511 31.1984 511 48 511H1222.91C1253.28 511 1268.46 511 1276.58 504.71C1283.64 499.235 1287.89 490.896 1288.18 481.964C1288.51 471.703 1279.6 459.411 1261.78 434.826L1020.37 101.842C1015.64 95.3083 1013.27 92.0415 1010.27 89.5832C1007.61 87.4048 1004.6 85.6997 1001.36 84.5422C997.706 83.2361 993.686 82.8887 985.646 82.1937L52.1334 1.5061C34.0429 -0.0575256 24.9977 -0.839355 18.0174 2.20184C11.8848 4.87375 6.82106 9.51865 3.63099 15.3984C0 22.0909 0 31.1699 0 49.3278V463Z" fill="#578BC3"/>
</svg>
