<svg width="21" height="20" viewBox="0 0 21 20" fill="none" xmlns="http://www.w3.org/2000/svg">
<path fill-rule="evenodd" clip-rule="evenodd" d="M6.2712 0.0596729C7.33786 0.0116031 7.6787 0 10.3945 0C13.1104 0 13.4512 0.0116031 14.5179 0.0596729C16.1429 0.133435 17.5704 0.529597 18.7162 1.66918C19.862 2.80877 20.2604 4.22849 20.3345 5.84463C20.3829 6.90549 20.3945 7.24446 20.3945 9.94549C20.3945 12.6465 20.3829 12.9855 20.3345 14.0463C20.2604 15.6625 19.862 17.0822 18.7162 18.2218C17.5704 19.3614 16.1429 19.7575 14.5179 19.8313C13.4512 19.8794 13.1104 19.891 10.3945 19.891C7.6787 19.891 7.33786 19.8794 6.2712 19.8313C4.6462 19.7575 3.2187 19.3614 2.07286 18.2218C0.927031 17.0822 0.528698 15.6625 0.454531 14.0463C0.406198 12.9855 0.394531 12.6465 0.394531 9.94549C0.394531 7.24446 0.406198 6.90549 0.454531 5.84463C0.528698 4.22849 0.927031 2.80877 2.07286 1.66918C3.2187 0.529597 4.6462 0.133435 6.2712 0.0596729ZM14.4345 1.85001C13.3803 1.80194 13.0636 1.79199 10.3936 1.79199C7.72365 1.79199 7.40698 1.80194 6.35281 1.85001C5.21448 1.90139 4.15865 2.12848 3.34615 2.93655C2.53365 3.74462 2.30531 4.7947 2.25365 5.92683C2.20531 6.97525 2.19531 7.29019 2.19531 9.94564C2.19531 12.6011 2.20531 12.916 2.25365 13.9644C2.30531 15.0966 2.53365 16.1467 3.34615 16.9547C4.15865 17.7628 5.21448 17.9899 6.35281 18.0413C7.40698 18.0893 7.72365 18.0993 10.3936 18.0993C13.0636 18.0993 13.3803 18.0893 14.4345 18.0413C15.5728 17.9899 16.6286 17.7628 17.4411 16.9547C18.2536 16.1467 18.482 15.0966 18.5336 13.9644C18.582 12.916 18.592 12.6011 18.592 9.94564C18.592 7.29019 18.582 6.97525 18.5336 5.92683C18.482 4.7947 18.2536 3.74462 17.4411 2.93655C16.6286 2.12848 15.5728 1.90139 14.4345 1.85001ZM5.25781 9.9449C5.25781 7.12453 7.55698 4.83789 10.3928 4.83789C13.2286 4.83789 15.5278 7.12453 15.5278 9.9449C15.5278 12.7653 13.2286 15.0519 10.3928 15.0519C7.55698 15.0519 5.25781 12.7653 5.25781 9.9449ZM7.05859 9.94504C7.05859 11.7758 8.55109 13.2602 10.3919 13.2602C12.2328 13.2602 13.7253 11.7758 13.7253 9.94504C13.7253 8.11425 12.2328 6.62988 10.3919 6.62988C8.55109 6.62988 7.05859 8.11425 7.05859 9.94504ZM16.9312 4.63682C16.9312 5.29595 16.394 5.83028 15.7312 5.83028C15.0685 5.83028 14.5312 5.29595 14.5312 4.63682C14.5312 3.97769 15.0685 3.44336 15.7312 3.44336C16.394 3.44336 16.9312 3.97769 16.9312 4.63682Z" fill="#0A142F"/>
</svg>
