<svg width="1440" height="261" viewBox="0 0 1440 261" fill="none" xmlns="http://www.w3.org/2000/svg">
<path fill-rule="evenodd" clip-rule="evenodd" d="M1444 217.025L1383.62 231.494C1323.25 245.962 1202.5 274.899 1081.75 253.196C961 231.494 840.25 159.152 719.5 137.449C598.75 115.747 478 144.684 357.25 166.386C236.5 188.089 115.75 202.557 55.375 209.791L-5 217.025V0H55.375C115.75 0 236.5 0 357.25 0C478 0 598.75 0 719.5 0C840.25 0 961 0 1081.75 0C1202.5 0 1323.25 0 1383.62 0H1444V217.025Z" fill="#FEF0F2"/>
</svg>
