<svg width="20" height="16" viewBox="0 0 20 16" fill="none" xmlns="http://www.w3.org/2000/svg">
<path d="M17.7711 4.35788L17.7831 4.86448C17.7831 10.0376 13.826 15.9975 6.58905 15.9975C4.36784 15.9975 2.30039 15.3499 0.558594 14.2393C0.86624 14.275 1.1798 14.2949 1.49744 14.2949C3.34115 14.2949 5.03701 13.6691 6.38331 12.6202C4.66149 12.5884 3.20927 11.456 2.70792 9.90252C2.94959 9.9482 3.1933 9.9701 3.44897 9.9701C3.80853 9.9701 4.15606 9.92442 4.48566 9.83502C2.6859 9.47343 1.32962 7.89411 1.32962 5.99889V5.94922C1.86093 6.24324 2.46617 6.41805 3.11136 6.43994C2.05668 5.73867 1.36155 4.54073 1.36155 3.18386C1.36155 2.46671 1.55532 1.79523 1.89287 1.21715C3.83245 3.58518 6.73282 5.14267 10.0027 5.30559C9.93479 5.01949 9.90088 4.71953 9.90088 4.41362C9.90088 2.25419 11.6627 0.501953 13.836 0.501953C14.9665 0.501953 15.9893 0.976723 16.7083 1.7376C17.6032 1.56076 18.4462 1.23499 19.2072 0.787991C18.9136 1.70185 18.2904 2.46867 17.4774 2.95337C18.2704 2.85999 19.0315 2.6474 19.7366 2.33751C19.2093 3.12021 18.5401 3.80959 17.7711 4.35788Z" fill="#0A142F"/>
</svg>
