<svg width="464" height="464" viewBox="0 0 464 464" fill="none" xmlns="http://www.w3.org/2000/svg">
<path fill-rule="evenodd" clip-rule="evenodd" d="M333.729 118.144C362.622 137.771 392.243 159.968 403.178 193.146C414.996 229.001 413.691 270.65 394.771 303.347C376.266 335.326 338.966 349.319 304.748 363.247C273.419 376 240.677 384.107 207.152 379.718C173.051 375.253 136.004 365.957 115.37 338.455C95.4668 311.926 109.545 274.732 103.865 242.048C98.0871 208.802 65.6727 175.389 81.8849 145.775C98.1935 115.984 142.954 122.213 175.236 111.675C201.056 103.247 224.667 89.204 251.797 90.3114C281.346 91.5175 309.275 101.532 333.729 118.144Z" fill="#F4F3EF"/>
<path d="M126.878 151.279C127.677 151.632 128.3 152.162 128.747 152.867C129.193 153.572 129.416 154.404 129.414 155.364C129.411 156.74 128.976 157.859 128.111 158.721C127.245 159.552 126.14 159.965 124.796 159.962C123.452 159.96 122.333 159.525 121.439 158.659C120.577 157.794 120.147 156.689 120.15 155.345C120.151 154.705 120.232 154.065 120.394 153.425C120.555 152.786 120.909 151.826 121.456 150.547L124.254 143.641L129.006 143.651L126.878 151.279ZM138.206 151.302C139.005 151.656 139.628 152.185 140.075 152.89C140.521 153.595 140.744 154.428 140.742 155.388C140.739 156.764 140.304 157.883 139.439 158.745C138.573 159.575 137.468 159.989 136.124 159.986C134.78 159.983 133.661 159.549 132.767 158.683C131.905 157.817 131.475 156.712 131.478 155.368C131.479 154.728 131.56 154.088 131.722 153.449C131.883 152.809 132.237 151.85 132.784 150.571L135.582 143.665L140.334 143.675L138.206 151.302Z" fill="#F26E7D"/>
<path d="M346.034 317.772C345.236 317.415 344.615 316.883 344.172 316.176C343.728 315.469 343.51 314.636 343.516 313.676C343.525 312.3 343.964 311.182 344.834 310.324C345.703 309.498 346.81 309.089 348.154 309.097C349.498 309.106 350.615 309.545 351.505 310.415C352.364 311.285 352.789 312.391 352.78 313.735C352.776 314.375 352.692 315.015 352.527 315.654C352.363 316.293 352.005 317.25 351.453 318.527L348.624 325.421L343.873 325.39L346.034 317.772ZM334.706 317.699C333.908 317.342 333.288 316.81 332.844 316.103C332.401 315.396 332.182 314.563 332.188 313.603C332.197 312.227 332.636 311.109 333.506 310.251C334.375 309.425 335.482 309.016 336.826 309.024C338.17 309.033 339.287 309.472 340.177 310.342C341.036 311.212 341.461 312.318 341.452 313.662C341.448 314.302 341.364 314.942 341.2 315.581C341.036 316.22 340.677 317.177 340.125 318.454L337.297 325.348L332.545 325.317L334.706 317.699Z" fill="#F26E7D"/>
</svg>
