<svg width="353" height="353" viewBox="0 0 353 353" fill="none" xmlns="http://www.w3.org/2000/svg">
<path fill-rule="evenodd" clip-rule="evenodd" d="M93.1529 86.5933C115.596 71.3261 145.341 83.867 172.397 81.9411C197.205 80.1752 222.101 65.9601 244.924 75.7897C268.425 85.9114 280.315 111.114 292.438 133.642C305.223 157.4 325.807 183.478 316.531 208.852C307.17 234.463 269.11 233.109 249.246 251.805C229.45 270.437 228.336 307.749 202.5 316.179C176.665 324.609 150.346 305.411 126.914 291.722C104.139 278.417 82.8807 262.344 70.491 239.06C57.6897 215.002 53.0322 187.395 57.0429 160.411C61.1691 132.65 69.9318 102.39 93.1529 86.5933Z" fill="white" stroke="#F4F3EF" stroke-width="2.63767"/>
<circle cx="80.2882" cy="97.2344" r="20" fill="#F26E7D"/>
<path d="M76.6402 97.2504C77.4402 97.6024 78.0642 98.1304 78.5122 98.8344C78.9602 99.5384 79.1842 100.37 79.1842 101.33C79.1842 102.706 78.7522 103.826 77.8882 104.69C77.0242 105.522 75.9202 105.938 74.5762 105.938C73.2322 105.938 72.1122 105.506 71.2162 104.642C70.3522 103.778 69.9202 102.674 69.9202 101.33C69.9202 100.69 70.0002 100.05 70.1602 99.4104C70.3202 98.7704 70.6722 97.8104 71.2162 96.5304L74.0002 89.6184H78.7522L76.6402 97.2504ZM87.9682 97.2504C88.7682 97.6024 89.3922 98.1304 89.8402 98.8344C90.2882 99.5384 90.5122 100.37 90.5122 101.33C90.5122 102.706 90.0802 103.826 89.2162 104.69C88.3522 105.522 87.2482 105.938 85.9042 105.938C84.5602 105.938 83.4402 105.506 82.5442 104.642C81.6802 103.778 81.2482 102.674 81.2482 101.33C81.2482 100.69 81.3282 100.05 81.4882 99.4104C81.6482 98.7704 82.0002 97.8104 82.5442 96.5304L85.3282 89.6184H90.0802L87.9682 97.2504Z" fill="white"/>
</svg>
