<svg width="268" height="186" viewBox="0 0 268 186" fill="none" xmlns="http://www.w3.org/2000/svg">
<rect x="1" y="21" width="266" height="164" rx="9" fill="white" stroke="#F4F3EF" stroke-width="2"/>
<circle cx="134" cy="20" r="20" fill="#F26E7D"/>
<path d="M130.352 20.016C131.152 20.368 131.776 20.896 132.224 21.6C132.672 22.304 132.896 23.136 132.896 24.096C132.896 25.472 132.464 26.592 131.6 27.456C130.736 28.288 129.632 28.704 128.288 28.704C126.944 28.704 125.824 28.272 124.928 27.408C124.064 26.544 123.632 25.44 123.632 24.096C123.632 23.456 123.712 22.816 123.872 22.176C124.032 21.536 124.384 20.576 124.928 19.296L127.712 12.384H132.464L130.352 20.016ZM141.68 20.016C142.48 20.368 143.104 20.896 143.552 21.6C144 22.304 144.224 23.136 144.224 24.096C144.224 25.472 143.792 26.592 142.928 27.456C142.064 28.288 140.96 28.704 139.616 28.704C138.272 28.704 137.152 28.272 136.256 27.408C135.392 26.544 134.96 25.44 134.96 24.096C134.96 23.456 135.04 22.816 135.2 22.176C135.36 21.536 135.712 20.576 136.256 19.296L139.04 12.384H143.792L141.68 20.016Z" fill="white"/>
</svg>
