<svg width="268" height="236" viewBox="0 0 268 236" fill="none" xmlns="http://www.w3.org/2000/svg">
<rect width="268" height="236" rx="10" fill="#F4F3EF"/>
<path d="M34.352 29.016C35.152 29.368 35.776 29.896 36.224 30.6C36.672 31.304 36.896 32.136 36.896 33.096C36.896 34.472 36.464 35.592 35.6 36.456C34.736 37.288 33.632 37.704 32.288 37.704C30.944 37.704 29.824 37.272 28.928 36.408C28.064 35.544 27.632 34.44 27.632 33.096C27.632 32.456 27.712 31.816 27.872 31.176C28.032 30.536 28.384 29.576 28.928 28.296L31.712 21.384H36.464L34.352 29.016ZM45.68 29.016C46.48 29.368 47.104 29.896 47.552 30.6C48 31.304 48.224 32.136 48.224 33.096C48.224 34.472 47.792 35.592 46.928 36.456C46.064 37.288 44.96 37.704 43.616 37.704C42.272 37.704 41.152 37.272 40.256 36.408C39.392 35.544 38.96 34.44 38.96 33.096C38.96 32.456 39.04 31.816 39.2 31.176C39.36 30.536 39.712 29.576 40.256 28.296L43.04 21.384H47.792L45.68 29.016Z" fill="#F26E7D"/>
</svg>
