<svg width="268" height="270" viewBox="0 0 268 270" fill="none" xmlns="http://www.w3.org/2000/svg">
<rect width="268" height="270" rx="10" fill="#F4F3EF"/>
<path d="M37.352 46.016C38.152 46.368 38.776 46.896 39.224 47.6C39.672 48.304 39.896 49.136 39.896 50.096C39.896 51.472 39.464 52.592 38.6 53.456C37.736 54.288 36.632 54.704 35.288 54.704C33.944 54.704 32.824 54.272 31.928 53.408C31.064 52.544 30.632 51.44 30.632 50.096C30.632 49.456 30.712 48.816 30.872 48.176C31.032 47.536 31.384 46.576 31.928 45.296L34.712 38.384H39.464L37.352 46.016ZM48.68 46.016C49.48 46.368 50.104 46.896 50.552 47.6C51 48.304 51.224 49.136 51.224 50.096C51.224 51.472 50.792 52.592 49.928 53.456C49.064 54.288 47.96 54.704 46.616 54.704C45.272 54.704 44.152 54.272 43.256 53.408C42.392 52.544 41.96 51.44 41.96 50.096C41.96 49.456 42.04 48.816 42.2 48.176C42.36 47.536 42.712 46.576 43.256 45.296L46.04 38.384H50.792L48.68 46.016Z" fill="#F26E7D"/>
<path d="M237.731 248.052C236.932 247.696 236.311 247.166 235.866 246.46C235.421 245.754 235.2 244.921 235.205 243.961C235.211 242.585 235.647 241.467 236.515 240.606C237.383 239.778 238.489 239.367 239.833 239.373C241.177 239.379 242.295 239.816 243.187 240.683C244.047 241.551 244.474 242.657 244.468 244.001C244.466 244.641 244.383 245.281 244.22 245.92C244.057 246.559 243.701 247.518 243.152 248.795L240.337 255.695L235.585 255.674L237.731 248.052ZM226.403 248.002C225.604 247.647 224.983 247.116 224.538 246.41C224.093 245.704 223.872 244.871 223.877 243.911C223.883 242.535 224.32 241.417 225.187 240.557C226.055 239.729 227.161 239.318 228.505 239.323C229.849 239.329 230.967 239.766 231.859 240.634C232.719 241.502 233.146 242.608 233.141 243.952C233.138 244.592 233.055 245.231 232.892 245.871C232.729 246.51 232.373 247.468 231.824 248.746L229.01 255.646L224.258 255.625L226.403 248.002Z" fill="#F26E7D"/>
</svg>
